<svg width="40" height="40" viewBox="0 0 40 40" fill="none" xmlns="http://www.w3.org/2000/svg">
<path d="M26.6663 35V8.33333C26.6663 7.44928 26.3152 6.60143 25.69 5.97631C25.0649 5.35119 24.2171 5 23.333 5H16.6663C15.7823 5 14.9344 5.35119 14.3093 5.97631C13.6842 6.60143 13.333 7.44928 13.333 8.33333V35M6.66634 11.6667H33.333C35.174 11.6667 36.6663 13.1591 36.6663 15V31.6667C36.6663 33.5076 35.174 35 33.333 35H6.66634C4.82539 35 3.33301 33.5076 3.33301 31.6667V15C3.33301 13.1591 4.82539 11.6667 6.66634 11.6667Z" stroke="#004071" stroke-width="2" stroke-linecap="round" stroke-linejoin="round"/>
</svg>
