<svg width="40" height="40" viewBox="0 0 40 40" fill="none" xmlns="http://www.w3.org/2000/svg">
<path d="M26.667 6.66659H30.0003C30.8844 6.66659 31.7322 7.01777 32.3573 7.6429C32.9825 8.26802 33.3337 9.11586 33.3337 9.99992V33.3333C33.3337 34.2173 32.9825 35.0652 32.3573 35.6903C31.7322 36.3154 30.8844 36.6666 30.0003 36.6666H10.0003C9.11627 36.6666 8.26842 36.3154 7.6433 35.6903C7.01818 35.0652 6.66699 34.2173 6.66699 33.3333V9.99992C6.66699 9.11586 7.01818 8.26802 7.6433 7.6429C8.26842 7.01777 9.11627 6.66659 10.0003 6.66659H13.3337M15.0003 3.33325H25.0003C25.9208 3.33325 26.667 4.07944 26.667 4.99992V8.33325C26.667 9.25373 25.9208 9.99992 25.0003 9.99992H15.0003C14.0799 9.99992 13.3337 9.25373 13.3337 8.33325V4.99992C13.3337 4.07944 14.0799 3.33325 15.0003 3.33325Z" stroke="#004071" stroke-width="2" stroke-linecap="round" stroke-linejoin="round"/>
<g clip-path="url(#clip0_37_84097)">
<path d="M20 13.75V30.25M23.75 16.75H18.125C17.4288 16.75 16.7611 17.0266 16.2688 17.5188C15.7766 18.0111 15.5 18.6788 15.5 19.375C15.5 20.0712 15.7766 20.7389 16.2688 21.2312C16.7611 21.7234 17.4288 22 18.125 22H21.875C22.5712 22 23.2389 22.2766 23.7312 22.7688C24.2234 23.2611 24.5 23.9288 24.5 24.625C24.5 25.3212 24.2234 25.9889 23.7312 26.4812C23.2389 26.9734 22.5712 27.25 21.875 27.25H15.5" stroke="#004071" stroke-width="2" stroke-linecap="round" stroke-linejoin="round"/>
</g>
<defs>
<clipPath id="clip0_37_84097">
<rect width="18" height="18" fill="white" transform="translate(11 13)"/>
</clipPath>
</defs>
</svg>
