<svg width="34" height="37" viewBox="0 0 34 37" fill="none" xmlns="http://www.w3.org/2000/svg">
<path d="M2 13.1672L17 1.50049L32 13.1672V31.5005C32 32.3845 31.6488 33.2324 31.0237 33.8575C30.3986 34.4826 29.5507 34.8338 28.6667 34.8338H5.33333C4.44928 34.8338 3.60143 34.4826 2.97631 33.8575C2.35119 33.2324 2 32.3845 2 31.5005V13.1672Z" fill="#004071"/>
<path d="M12 34.8338V18.1672H22V34.8338" fill="#004071"/>
<path d="M12 34.8338V18.1672H22V34.8338M2 13.1672L17 1.50049L32 13.1672V31.5005C32 32.3845 31.6488 33.2324 31.0237 33.8575C30.3986 34.4826 29.5507 34.8338 28.6667 34.8338H5.33333C4.44928 34.8338 3.60143 34.4826 2.97631 33.8575C2.35119 33.2324 2 32.3845 2 31.5005V13.1672Z" stroke="#F8F9FF" stroke-width="3" stroke-linecap="round" stroke-linejoin="round"/>
</svg>
