<svg width="38" height="34" viewBox="0 0 38 34" fill="none" xmlns="http://www.w3.org/2000/svg">
<path d="M32.333 8.66667H5.66634C3.82539 8.66667 2.33301 10.1591 2.33301 12V28.6667C2.33301 30.5076 3.82539 32 5.66634 32H32.333C34.174 32 35.6663 30.5076 35.6663 28.6667V12C35.6663 10.1591 34.174 8.66667 32.333 8.66667Z" fill="#004071"/>
<path d="M25.6663 32V5.33333C25.6663 4.44928 25.3152 3.60143 24.69 2.97631C24.0649 2.35119 23.2171 2 22.333 2H15.6663C14.7823 2 13.9344 2.35119 13.3093 2.97631C12.6842 3.60143 12.333 4.44928 12.333 5.33333V32" fill="#004071"/>
<path d="M25.6663 32V5.33333C25.6663 4.44928 25.3152 3.60143 24.69 2.97631C24.0649 2.35119 23.2171 2 22.333 2H15.6663C14.7823 2 13.9344 2.35119 13.3093 2.97631C12.6842 3.60143 12.333 4.44928 12.333 5.33333V32M5.66634 8.66667H32.333C34.174 8.66667 35.6663 10.1591 35.6663 12V28.6667C35.6663 30.5076 34.174 32 32.333 32H5.66634C3.82539 32 2.33301 30.5076 2.33301 28.6667V12C2.33301 10.1591 3.82539 8.66667 5.66634 8.66667Z" stroke="#F8F9FF" stroke-width="3" stroke-linecap="round" stroke-linejoin="round"/>
</svg>
